<svg xmlns="http://www.w3.org/2000/svg" viewBox="0 0 64 64">
<polygon points="8.00,52.00 32.00,64.00 32.00,67.00 8.00,55.00" fill="#9fc5e8" stroke="#1f2d3d" stroke-width="1.1" stroke-linejoin="round"/>
<polygon points="56.00,52.00 32.00,64.00 32.00,67.00 56.00,55.00" fill="#9fc5e8" stroke="#1f2d3d" stroke-width="1.1" stroke-linejoin="round"/>
<polygon points="32.00,40.00 56.00,52.00 32.00,64.00 8.00,52.00" fill="#cfe2f3" stroke="#1f2d3d" stroke-width="1.1" stroke-linejoin="round"/>
<g stroke="#7f8c9b" stroke-width="1.3"><line x1="32" y1="44" x2="20" y2="30"/><line x1="32" y1="44" x2="44" y2="30"/><line x1="32" y1="44" x2="32" y2="22"/></g>
<circle cx="32" cy="44" r="2.2" fill="#5a6b7b"/>
<polygon points="24.00,12.00 32.00,16.00 32.00,24.00 24.00,20.00" fill="#6fb22f" stroke="#1f2d3d" stroke-width="1.2" stroke-linejoin="round"/>
<polygon points="40.00,12.00 32.00,16.00 32.00,24.00 40.00,20.00" fill="#5a9426" stroke="#1f2d3d" stroke-width="1.2" stroke-linejoin="round"/>
<polygon points="32.00,8.00 40.00,12.00 32.00,16.00 24.00,12.00" fill="#a6d96f" stroke="#1f2d3d" stroke-width="1.2" stroke-linejoin="round"/>
<polygon points="10.00,22.00 18.00,26.00 18.00,34.00 10.00,30.00" fill="#4a90d9" stroke="#1f2d3d" stroke-width="1.2" stroke-linejoin="round"/>
<polygon points="26.00,22.00 18.00,26.00 18.00,34.00 26.00,30.00" fill="#357abd" stroke="#1f2d3d" stroke-width="1.2" stroke-linejoin="round"/>
<polygon points="18.00,18.00 26.00,22.00 18.00,26.00 10.00,22.00" fill="#7cc0f5" stroke="#1f2d3d" stroke-width="1.2" stroke-linejoin="round"/>
<polygon points="38.00,22.00 46.00,26.00 46.00,34.00 38.00,30.00" fill="#4a90d9" stroke="#1f2d3d" stroke-width="1.2" stroke-linejoin="round"/>
<polygon points="54.00,22.00 46.00,26.00 46.00,34.00 54.00,30.00" fill="#357abd" stroke="#1f2d3d" stroke-width="1.2" stroke-linejoin="round"/>
<polygon points="46.00,18.00 54.00,22.00 46.00,26.00 38.00,22.00" fill="#7cc0f5" stroke="#1f2d3d" stroke-width="1.2" stroke-linejoin="round"/>
</svg>